<svg width='200' height='200' fill="#FFFFFF" xmlns="http://www.w3.org/2000/svg" xmlns:xlink="http://www.w3.org/1999/xlink" version="1.1" x="0px" y="0px" viewBox="0 0 164 164" enable-background="new 0 0 164 164" xml:space="preserve"><path fill-rule="evenodd" clip-rule="evenodd" d="M25.81,104.256c47.445,0,67.5,0,117.996,0  c28.267-0.481,23.966-39.717,2.231-41.739c8.998-20.448-13.257-39.511-31.986-27.229c1.555-28.619-39.151-35.881-50.219-11.573  C44.158,7.75,15.215,27.603,24.428,51.704C-9.425,54.612-7.273,104.202,25.81,104.256L25.81,104.256z M117.314,123.603  c-20.552,18.824-51.774,18.511-70.948-0.383l4.743-4.396c16.804,16.35,43.991,16.563,61.925,0.166L117.314,123.603L117.314,123.603z   M107.958,112.106l-3.15-3.396c-13.205,12.072-33.222,11.916-45.593-0.122l-3.493,3.237  C69.839,125.735,92.826,125.967,107.958,112.106L107.958,112.106z M127.952,137.148l-5.563-5.998  c-23.313,21.316-58.654,21.038-80.497-0.215l-6.164,5.715C60.652,161.211,101.237,161.618,127.952,137.148z"/></svg>